<?xml version="1.0" encoding="iso-8859-1"?>
<!-- Generator: Adobe Illustrator 19.0.0, SVG Export Plug-In . SVG Version: 6.00 Build 0)  -->
<svg version="1.1" id="Capa_1" xmlns="http://www.w3.org/2000/svg" xmlns:xlink="http://www.w3.org/1999/xlink" x="0px" y="0px"
	 viewBox="0 0 512 512" style="enable-background:new 0 0 512 512;" xml:space="preserve">
<g>
	<path style="fill:#E57E25;" d="M450.207,0c9.751,0,17.655,7.904,17.655,17.655v293.997c0,0-28.248,155.826-211.862,200.348
		C72.386,467.478,44.138,311.652,44.138,311.652V17.655C44.138,7.904,52.042,0,61.793,0H450.207z"/>
	<path style="fill:#F29C1F;" d="M256.001,475.552C115.966,437.638,83.833,326.284,79.449,307.922V35.31h353.103v272.638
		C428.1,326.845,396.306,437.603,256.001,475.552z"/>
	<g>
		<rect x="79.449" y="35.31" style="fill:#E6E7E8;" width="353.103" height="132.414"/>
		<path style="fill:#E6E7E8;" d="M300.139,291.31c-2.341,0.001-4.587-0.929-6.243-2.585c-1.656-1.656-2.585-3.901-2.585-6.243
			v-44.138c-0.016-14.619-11.863-26.467-26.483-26.483h-17.655c-14.619,0.016-26.467,11.863-26.483,26.483v44.138
			c0,4.875-3.952,8.828-8.828,8.828s-8.828-3.952-8.828-8.828v-44.138c0.029-24.365,19.773-44.109,44.138-44.138h17.655
			c24.365,0.029,44.109,19.773,44.138,44.138v44.138c0.001,2.341-0.929,4.587-2.585,6.243
			C304.726,290.381,302.48,291.311,300.139,291.31z"/>
	</g>
	<g>
		<path style="fill:#E57E25;" d="M206.513,62.509c-2.151-0.935-4.586-0.971-6.763-0.1c-2.177,0.871-3.916,2.577-4.827,4.738
			L176.552,110l-18.37-42.853c-1.235-2.908-3.93-4.934-7.066-5.312c-3.137-0.378-6.236,0.949-8.127,3.48s-2.284,5.88-1.031,8.78
			l26.483,61.793c1.389,3.247,4.58,5.354,8.112,5.354c3.532,0,6.723-2.106,8.112-5.354l26.483-61.793
			C213.067,69.616,210.992,64.428,206.513,62.509z"/>
		<path style="fill:#E57E25;" d="M256.001,61.793h-17.655c-2.341-0.001-4.587,0.929-6.243,2.585
			c-1.656,1.656-2.585,3.901-2.585,6.243v61.793c0,4.875,3.952,8.828,8.828,8.828s8.828-3.952,8.828-8.828v-17.655h8.828
			c14.626,0,26.483-11.857,26.483-26.483S270.627,61.793,256.001,61.793z M256.001,97.103h-8.828V79.448h8.828
			c4.875,0,8.828,3.952,8.828,8.828C264.828,93.151,260.876,97.103,256.001,97.103z"/>
		<path style="fill:#E57E25;" d="M353.104,61.793c-2.341-0.001-4.587,0.929-6.243,2.585c-1.656,1.656-2.585,3.901-2.585,6.243v34.25
			l-28.125-39.379c-2.23-3.123-6.223-4.448-9.878-3.277c-3.655,1.171-6.135,4.568-6.136,8.406v61.793
			c0,4.875,3.952,8.828,8.828,8.828s8.828-3.952,8.828-8.828v-34.25l28.125,39.379c2.23,3.123,6.223,4.448,9.878,3.277
			c3.655-1.171,6.135-4.569,6.135-8.406V70.621c0.001-2.341-0.929-4.587-2.585-6.243C357.691,62.722,355.446,61.792,353.104,61.793z
			"/>
	</g>
	<path style="fill:#41767F;" d="M203.035,282.483h105.931c9.751,0,17.655,7.905,17.655,17.655v88.276
		c0,9.751-7.904,17.655-17.655,17.655H203.035c-9.751,0-17.655-7.905-17.655-17.655v-88.276
		C185.38,290.387,193.285,282.483,203.035,282.483z"/>
	<g>
		<circle style="fill:#E6E7E8;" cx="256.001" cy="335.448" r="17.655"/>
		<path style="fill:#E6E7E8;" d="M256.001,379.586c-2.341,0.001-4.587-0.929-6.243-2.585c-1.656-1.656-2.585-3.901-2.585-6.243
			v-17.655c0-4.875,3.952-8.828,8.828-8.828c4.875,0,8.828,3.952,8.828,8.828v17.655c0.001,2.341-0.929,4.587-2.585,6.243
			C260.588,378.657,258.342,379.587,256.001,379.586z"/>
	</g>
</g>
<g>
</g>
<g>
</g>
<g>
</g>
<g>
</g>
<g>
</g>
<g>
</g>
<g>
</g>
<g>
</g>
<g>
</g>
<g>
</g>
<g>
</g>
<g>
</g>
<g>
</g>
<g>
</g>
<g>
</g>
</svg>
